<svg preserveAspectRatio="xMidYMid meet" fill="#fff" stroke="#000" stroke-width="1px" data-bbox="6.972 34.72 184.187 121.52" data-name="Layer 1" xmlns="http://www.w3.org/2000/svg" viewBox="6.972 34.72 184.187 121.52" role="presentation" aria-hidden="true">
    <g>
        <path d="M60.31 145.56c4.36-7-9.39-13.08-9.39-13.08-.34 15.09 9.39 13.08 9.39 13.08z"></path>
        <path d="M40.82 150.28c12.24 8.84 16.11-.31 16.11-.31-3.33-7.59-16.11.31-16.11.31z"></path>
        <path d="M44.13 137.15c6.5-5.14-4.37-15.5-4.37-15.5-5.46 14.08 4.37 15.5 4.37 15.5z"></path>
        <path d="M25.37 138.19c10.25 11.09 15.85 2.88 15.85 2.88-1.77-8.07-15.85-2.88-15.85-2.88z"></path>
        <path d="M32.59 127.61c7.89-2.52 1.38-16 1.38-16-10.08 11.2-1.38 16-1.38 16z"></path>
        <path d="M15.2 122.06c5.68 14 13.81 8.28 13.81 8.28 1.21-8.19-13.81-8.28-13.81-8.28z"></path>
        <path d="M24.13 115.86c8.26-.7 4.9-15.34 4.9-15.34-12.32 8.73-4.9 15.34-4.9 15.34z"></path>
        <path d="M21.55 100.7c8.58.59 7.69-14.41 7.69-14.41C15.1 93 21.55 100.7 21.55 100.7z"></path>
        <path d="M14.56 101.37c5.9-6-6.88-14.72-6.88-14.72-3.46 14.71 6.88 14.72 6.88 14.72z"></path>
        <path d="M32.39 71.67C17 74.46 21.2 83.57 21.2 83.57c8.14 2.81 11.19-11.9 11.19-11.9z"></path>
        <path d="M15.95 83.88c6.14-5.77-6.29-15-6.29-15-4.04 14.58 6.29 15 6.29 15z"></path>
        <path d="M24.22 69.74c7.39 4.41 13.38-9.37 13.38-9.37-15.66-.37-13.38 9.37-13.38 9.37z"></path>
        <path d="M19.28 67.79c7.18-4.4-3.1-16-3.1-16-6.92 13.48 3.1 16 3.1 16z"></path>
        <path d="M45.16 50.32C29.85 47 30.26 57 30.26 57c6.43 5.73 14.9-6.68 14.9-6.68z"></path>
        <path d="M25.75 54.46c7.88-3-.05-16.25-.05-16.25-9.32 11.9.05 16.25.05 16.25z"></path>
        <path d="M20.66 108.54c-8.52-27.77 9.7-56.28 14.14-62.65 9.12 1.62 10.88-11.17 10.88-11.17-12.95.87-12.55 8.28-12.17 10.36a103.65 103.65 0 0 0-10.36 19C18.5 75.3 14.05 92.18 19.2 109c.32 1 .68 2.06 1.06 3.08-2.28-4.77-11.52-6.94-11.52-6.94 2.43 14.9 11.63 11.14 11.63 11.14a5.21 5.21 0 0 0 .24-3.3c7.54 18.89 26.38 33.43 56.08 43.26l.48-1.44c-31.26-10.37-50.27-25.92-56.51-46.26z"></path>
        <path d="M147.21 132.48s-13.75 6-9.39 13.08c-.01 0 9.72 2.01 9.39-13.08z"></path>
        <path d="M141.2 150s3.86 9.15 16.11.31c-.01-.03-12.78-7.93-16.11-.31z"></path>
        <path d="M154 137.15s9.83-1.42 4.37-15.5c0 0-10.87 10.35-4.37 15.5z"></path>
        <path d="M156.92 141.07s5.6 8.21 15.85-2.88c-.01 0-14.1-5.19-15.85 2.88z"></path>
        <path d="M165.54 127.61s8.7-4.8-1.38-16c0-.05-6.51 13.48 1.38 16z"></path>
        <path d="M169.12 130.35s8.13 5.71 13.81-8.28c0-.01-15.02.08-13.81 8.28z"></path>
        <path d="M174 115.86s7.42-6.61-4.9-15.34c0 0-3.36 14.64 4.9 15.34z"></path>
        <path d="M177.86 112.05c.38-1 .74-2 1.06-3.08 5.15-16.79.7-33.67-3.94-44.87a103.65 103.65 0 0 0-10.36-19c.37-2.08.77-9.48-12.17-10.36 0 0 1.77 12.8 10.88 11.17 4.44 6.37 22.66 34.88 14.14 62.65-6.24 20.34-25.25 35.89-56.51 46.23l.48 1.44c29.7-9.83 48.54-24.37 56.08-43.26a5.21 5.21 0 0 0 .24 3.3s9.2 3.76 11.63-11.14c0-.02-9.25 2.15-11.53 6.92z"></path>
        <path d="M168.88 86.29s-.89 15 7.69 14.41c.01 0 6.43-7.7-7.69-14.41z"></path>
        <path d="M183.57 101.37s10.34 0 6.88-14.72c0 0-12.78 8.71-6.88 14.72z"></path>
        <path d="M165.73 71.67s3.05 14.71 11.19 11.9c0 0 4.22-9.11-11.19-11.9z"></path>
        <path d="M182.18 83.88s10.33-.42 6.29-15c0 .01-12.47 9.23-6.29 15z"></path>
        <path d="M160.53 60.37s6 13.78 13.38 9.37c0 0 2.28-9.74-13.38-9.37z"></path>
        <path d="M178.84 67.79s10-2.52 3.1-16c0 .05-10.28 11.6-3.1 16z"></path>
        <path d="M153 50.32s8.47 12.41 14.9 6.69c-.03-.01.37-10.01-14.9-6.69z"></path>
        <path d="M172.37 54.46s9.37-4.35.05-16.25c.01 0-7.93 13.28-.05 16.25z"></path>
    </g>
</svg>
